<?xml version="1.0" encoding="UTF-8"?><svg xmlns="http://www.w3.org/2000/svg" viewBox="0 0 501 501"><rect x="0" y="0" width="500" height="500" rx="75" ry="75" fill="#fff" stroke-width="0"/><path d="M302.84,347.34c56.85-29.33,79.5-99.87,50.6-157.56-28.91-57.68-98.43-80.67-155.28-51.34-56.85,29.33-79.5,99.87-50.6,157.56,11.08,22.12,28.8,40.09,50.6,51.34l-21.22,28.16c-72.18-41.22-97.76-134.01-57.13-207.25,21.6-38.94,58.97-66.28,102.21-74.76-1.16-8.32,4.54-16.02,12.74-17.21.25-.04.5-.07.75-.09,9.98-.92,20.02-.92,29.99,0,8.25.76,14.32,8.17,13.57,16.54-.02.25-.05.5-.09.76,81.32,15.96,134.49,95.79,118.76,178.3-8.36,43.87-35.31,81.79-73.68,103.71l-21.22-28.16h0ZM343.16,406.26c2.8.57,4.82,3.07,4.82,5.97v13.27h-194.96v-13.27c0-2.9,2.02-5.4,4.82-5.97l63.78-12.94c9.81-1.99,16.88-10.74,16.88-20.89v-86.53c0-6.79-4.44-12.77-10.88-14.63l-29.62-8.59v-27.65c0-11.11,8.42-20.36,19.34-21.24,22.07-1.77,44.24-1.77,66.3,0,10.92.88,19.34,10.12,19.34,21.24v27.65l-29.62,8.59c-6.44,1.87-10.88,7.84-10.88,14.63v86.53c0,10.16,7.06,18.9,16.88,20.89l63.78,12.94h.02Z" fill="#e60012" stroke-width="0"/></svg>